/* XPM */
static char *maximize_toggled_active_png[] = {
/* columns rows colors chars-per-pixel */
"32 32 2 1 ",
"  c #6E738D",
". c #A2A4A8",
/* pixels */
"                                ",
"                                ",
"                                ",
"                                ",
"                                ",
"                                ",
"                                ",
"                                ",
"                                ",
"                                ",
"                                ",
"                                ",
"                                ",
"             ......             ",
"             ......             ",
"             ..  ..             ",
"             ..  ..             ",
"             ......             ",
"             ......             ",
"                                ",
"                                ",
"                                ",
"                                ",
"                                ",
"                                ",
"                                ",
"                                ",
"                                ",
"                                ",
"                                ",
"                                ",
"                                "
};
