/* XPM */
static char *maximize_inactive_png[] = {
/* columns rows colors chars-per-pixel */
"32 32 2 1 ",
"  c #6E738D",
". c #585B62",
/* pixels */
"                                ",
"                                ",
"                                ",
"                                ",
"                                ",
"                                ",
"                                ",
"                                ",
"                                ",
"                                ",
"                                ",
"                                ",
"            ........            ",
"            ........            ",
"            ..    ..            ",
"            ..    ..            ",
"            ..    ..            ",
"            ..    ..            ",
"            ........            ",
"            ........            ",
"                                ",
"                                ",
"                                ",
"                                ",
"                                ",
"                                ",
"                                ",
"                                ",
"                                ",
"                                ",
"                                ",
"                                "
};
