/* XPM */
static char * task_focus_xpm[] = {
"4 24 2 1",
" 	c #6E738D",
".	c #5294E2",
"    ",
"    ",
"    ",
"    ",
"    ",
"    ",
"    ",
"    ",
"    ",
"    ",
"    ",
"    ",
"    ",
"    ",
"    ",
"    ",
"    ",
"    ",
"    ",
"    ",
"    ",
"    ",
"....",
"...."};
