/* XPM */
static char * task_focus_xpm[] = {
"4 24 2 1",
" 	c #24273A",
".	c #5294E2",
"    ",
"    ",
"    ",
"    ",
"    ",
"    ",
"    ",
"    ",
"    ",
"    ",
"    ",
"    ",
"    ",
"    ",
"    ",
"    ",
"    ",
"    ",
"    ",
"    ",
"    ",
"    ",
"....",
"...."};
